<?xml version="1.0" encoding="UTF-8" standalone="no"?>
<!-- Created with Inkscape (http://www.inkscape.org/) -->

<svg
   width="60"
   height="60"
   viewBox="0 0 59.999999 60.000002"
   version="1.1"
   id="svg8"
   xmlns="http://www.w3.org/2000/svg"
   xmlns:svg="http://www.w3.org/2000/svg"
   xmlns:rdf="http://www.w3.org/1999/02/22-rdf-syntax-ns#"
   xmlns:cc="http://creativecommons.org/ns#"
   xmlns:dc="http://purl.org/dc/elements/1.1/">
  <defs
     id="defs2" />
  <metadata
     id="metadata5">
    <rdf:RDF>
      <cc:Work
         rdf:about="">
        <dc:format>image/svg+xml</dc:format>
        <dc:type
           rdf:resource="http://purl.org/dc/dcmitype/StillImage" />
        <dc:creator>
          <cc:Agent>
            <dc:title>Aristotelis P. (Glutanimate)</dc:title>
          </cc:Agent>
        </dc:creator>
        <dc:rights>
          <cc:Agent>
            <dc:title>Copyright (c) 2019-2022 Aristotelis P. (Glutanimate)</dc:title>
          </cc:Agent>
        </dc:rights>
        <dc:source>https://glutanimate.com</dc:source>
      </cc:Work>
    </rdf:RDF>
  </metadata>
  <g
     id="layer1"
     transform="translate(0,-1062.5196)">
    <g
       aria-label="[[.]"
       style="opacity:1;fill:#022255;fill-opacity:1;fill-rule:evenodd;stroke:#000000;stroke-width:0;stroke-miterlimit:4;stroke-dasharray:none;stroke-dashoffset:0;stroke-opacity:1"
       id="text817">
      <g
         id="g821"
         transform="matrix(1.2232694,0,0,1.2232694,-6.698083,-243.92626)">
        <path
           id="path850"
           style="stroke-width:0"
           d="m 14.952345,1110.6117 v -4.3983 h -3.899538 v -27.3875 h 3.899538 v -4.3983 H 5.4755597 v 36.1841 z" />
        <path
           id="path852"
           style="fill:#022255;fill-opacity:1;stroke-width:0"
           d="m 28.856495,1110.6117 v -4.3983 h -3.899538 v -27.3875 h 3.899538 v -4.3983 H 19.37971 v 36.1841 z" />
        <path
           id="path854"
           style="fill:#0e74ff;fill-opacity:1;stroke-width:0"
           d="m 37.319429,1105.9866 c 2.720608,0 4.534347,-1.9044 4.534347,-4.6703 -0.04534,-2.8567 -1.904426,-4.7158 -4.44366,-4.7158 -2.539235,0 -4.489004,1.9498 -4.489004,4.7158 0,2.7659 1.904426,4.6703 4.398317,4.6703 z" />
        <path
           id="path856"
           style="stroke-width:0"
           d="m 45.047656,1074.4276 v 4.3983 h 3.899539 v 27.3875 h -3.899539 v 4.3983 h 9.476786 v -36.1841 z" />
      </g>
    </g>
  </g>
</svg>
