<?xml version="1.0" encoding="UTF-8" standalone="no"?>
<!-- Created with Inkscape (http://www.inkscape.org/) -->

<svg
   width="60"
   height="60"
   viewBox="0 0 59.999999 60.000002"
   version="1.1"
   id="svg8"
   xmlns="http://www.w3.org/2000/svg"
   xmlns:svg="http://www.w3.org/2000/svg"
   xmlns:rdf="http://www.w3.org/1999/02/22-rdf-syntax-ns#"
   xmlns:cc="http://creativecommons.org/ns#"
   xmlns:dc="http://purl.org/dc/elements/1.1/">
  <defs
     id="defs2" />
  <metadata
     id="metadata5">
    <rdf:RDF>
      <cc:Work
         rdf:about="">
        <dc:format>image/svg+xml</dc:format>
        <dc:type
           rdf:resource="http://purl.org/dc/dcmitype/StillImage" />
        <dc:creator>
          <cc:Agent>
            <dc:title>Aristotelis P. (Glutanimate)</dc:title>
          </cc:Agent>
        </dc:creator>
        <dc:rights>
          <cc:Agent>
            <dc:title>Copyright (c) 2019-2022 Aristotelis P. (Glutanimate)</dc:title>
          </cc:Agent>
        </dc:rights>
        <dc:source>https://glutanimate.com</dc:source>
      </cc:Work>
    </rdf:RDF>
  </metadata>
  <g
     id="layer1"
     transform="translate(0,-1062.5196)">
    <g
       aria-label="[..]"
       style="opacity:1;fill:#666666;fill-opacity:1;fill-rule:evenodd;stroke:none;stroke-width:0;stroke-miterlimit:4;stroke-dasharray:none;stroke-dashoffset:0;stroke-opacity:1"
       id="text817"
       transform="matrix(1.2620064,0,0,1.2620064,-7.8601947,-286.24719)">
      <path
         d="m 15.705118,1110.6117 v -4.3983 h -3.899539 v -27.3875 h 3.899539 v -4.3983 H 6.2283322 v 36.1841 z"
         style="fill:#666666;fill-opacity:1;stroke:none;stroke-width:0"
         id="path1039" />
      <path
         d="m 24.168051,1105.9866 c 2.720608,0 4.534347,-1.9044 4.534347,-4.6703 -0.04534,-2.8567 -1.904426,-4.7158 -4.44366,-4.7158 -2.539234,0 -4.489004,1.9498 -4.489004,4.7158 0,2.7659 1.904426,4.6703 4.398317,4.6703 z"
         style="fill:#666666;fill-opacity:1;stroke:none;stroke-width:0"
         id="path1041" />
      <path
         d="m 36.566656,1105.9866 c 2.720609,0 4.534348,-1.9044 4.534348,-4.6703 -0.04534,-2.8567 -1.904426,-4.7158 -4.443661,-4.7158 -2.539234,0 -4.489003,1.9498 -4.489003,4.7158 0,2.7659 1.904426,4.6703 4.398316,4.6703 z"
         style="fill:#666666;fill-opacity:1;stroke:none;stroke-width:0"
         id="path1043" />
      <path
         d="m 44.294886,1074.4276 v 4.3983 h 3.899539 v 27.3875 h -3.899539 v 4.3983 h 9.476786 v -36.1841 z"
         style="fill:#666666;fill-opacity:1;stroke:none;stroke-width:0"
         id="path1045" />
    </g>
    <g
       id="g913"
       transform="matrix(0.70649896,0,0,0.70649896,9.0804978,319.8449)"
       style="stroke:#de8787;stroke-width:10;stroke-miterlimit:4;stroke-dasharray:none;stroke-opacity:1">
      <path
         id="path907"
         d="M 3.0304576,1120.2468 C 56.189735,1067.0875 56.189735,1067.0875 56.189735,1067.0875"
         style="fill:none;fill-rule:evenodd;stroke:#de8787;stroke-width:10;stroke-linecap:butt;stroke-linejoin:miter;stroke-miterlimit:4;stroke-dasharray:none;stroke-opacity:1" />
      <path
         style="fill:none;fill-rule:evenodd;stroke:#de8787;stroke-width:10;stroke-linecap:butt;stroke-linejoin:miter;stroke-miterlimit:4;stroke-dasharray:none;stroke-opacity:1"
         d="M 56.189735,1120.2468 C 3.0304576,1067.0875 3.0304576,1067.0875 3.0304576,1067.0875"
         id="path909" />
    </g>
  </g>
</svg>
